#!OML:ASF F:\VICON\USERDATA\INSTALL\rory3\rory3.ASF
:FULLY-SPECIFIED
:DEGREES
150
root 0.5981956060659342 17.735452194772925 63.56107184774038 -1.9810660206090378 -2.394240625890503 -2.0167179948512706
lfemur -12.346876417187664 -2.0382646389901873 -19.528645367995104
ltibia 28.08716911512159
lfoot 0.3629011536115909 -6.15535830042632
ltoes -15.116598775104507
rfemur -16.25622655459283 3.157162406261336 24.30185643229353
rtibia 38.04215181227166
rfoot -8.501265926379016 -6.888558114103343
rtoes 1.8266623228794496
lowerback 11.611340440525547 0.2274724802307766 1.1370057895768828
upperback 0.05505091039274368 0.6218501343147184 1.809220811015578
thorax -6.298590774583941 0.3157029340687634 0.30909234367309657
lowerneck -16.37719876112582 -3.10950664343694 -3.242049259213723
upperneck 22.04392183136702 -3.854275699189404 1.7986478569131157
head 9.66112690648951 -1.8485236287028366 0.7651419113657792
lclavicle -2.026717668496122e-15 -7.119178766383037e-16
lhumerus -31.37830749987968 0.8908710554115284 80.84172581610251
lradius 30.072181270566098
lwrist 7.613821084472941
lhand -29.7185435539118 19.603769942775457
lfingers 7.12502
lthumb -2.988023647360708 49.88208496484921
rclavicle -2.027699079260638e-15 -7.125263699292618e-16
rhumerus -30.907850020365085 -22.389095658287822 -75.53134579736671
rradius 20.385794438883238
rwrist 6.440945165155846
rhand -17.55162018156542 22.62671425471847
rfingers 7.12502
rthumb 8.246462565528287 -6.983879986826064
151
root 0.6005404798040319 17.764982072935254 63.733873858563285 -2.014908813117869 -2.1632902519228545 -2.0477247374163614
lfemur -11.599619758906933 -2.2095795339821964 -19.577560780081765
ltibia 27.61990570021098
lfoot 2.131966761984966 -6.945138417223593
ltoes -12.169023337379286
rfemur -16.620471457132528 3.2578697095604463 24.110226916715654
rtibia 38.07727656545503
rfoot -7.683145390860712 -6.639281958786435
rtoes 2.064089063453784
lowerback 11.62168765695735 0.09468658904140904 1.1504708558901822
upperback 0.10301594656795768 0.4397418312444164 1.8177299274255712
thorax -6.241489495080385 0.22641652507089252 0.41473765161452947
lowerneck -16.37332569489221 -3.0899053869308024 -3.2710979786566066
upperneck 22.090659372060106 -3.8098452544110897 1.7476282829274379
head 9.672742888799748 -1.8366539133180848 0.7547460565341575
lclavicle -2.026898070489331e-15 -7.120350201782652e-16
lhumerus -32.015300354735274 1.1334586439047043 80.86405066535222
lradius 29.69420548270733
lwrist 7.853352386792363
lhand -29.764301642455603 19.430863373816358
lfingers 7.12502
lthumb -3.0147049158807255 49.69446844917811
rclavicle -2.0275133532295593e-15 -7.124077813370962e-16
rhumerus -30.673347916530382 -22.19753779862459 -75.65283137434155
rradius 20.39257460263088
rwrist 6.198775225062969
rhand -17.41958136560983 22.662368518046254
rfingers 7.12502
rthumb 8.310246893011923 -6.867324372545828
152
root 0.6062742528784949 17.79158122026288 63.82318248844904 -1.966338498214812 -1.9550310042770382 -2.0874295146741453
lfemur -10.96637234929657 -2.3941663273822638 -19.541105589925294
ltibia 27.164164521117044
lfoot 4.0762399584335025 -7.419976696418601
ltoes -9.425112232224922
rfemur -16.930990973684455 3.486852536327021 24.010220485369167
rtibia 37.772416217428415
rfoot -6.873462345118382 -6.692196596765447
rtoes 2.23573221541464
lowerback 11.584324747587697 -0.019087422437159135 1.1796899668836627
upperback 0.13501079593109067 0.28015378389600315 1.832048416745379
thorax -6.178162575361295 0.14101494504671191 0.5180453760251233
lowerneck -16.393996310644706 -3.082149327056211 -3.3167554486691238
upperneck 22.101524171038587 -3.7956541567380433 1.7556783109442828
head 9.668540607901045 -1.8325505661766797 0.7619060458748608
lclavicle -2.0268960614574144e-15 -7.120337383147919e-16
lhumerus -32.67499871759021 1.5302507529452476 80.79109319627982
lradius 29.214458675902257
lwrist 7.982325882414216
lhand -29.78220253986395 19.4495467591712
lfingers 7.12502
lthumb -3.049004811940602 49.62916141669958
rclavicle -2.0277074333552787e-15 -7.125317162200301e-16
rhumerus -30.436649793256265 -21.85866568748694 -75.83176895014023
rradius 20.56557014020872
rwrist 5.82696982477425
rhand -17.314169388187715 22.650873289329297
rfingers 7.12502
rthumb 8.345111969128261 -6.897638328640406
153
root 0.6090033080930475 17.81706656453995 63.75001148671905 -2.0130127263059747 -2.0165370980489516 -2.0276556641968337
lfemur -10.163685176531208 -2.4058386979611006 -19.64208703553703
ltibia 26.785864744170837
lfoot 6.040397868288986 -7.698995926273067
ltoes -6.463935048044018
rfemur -17.31455521167388 3.869787110028784 23.976721414871605
rtibia 37.41442660820439
rfoot -6.084547808644359 -6.9676115089501485
rtoes 2.445562573750995
lowerback 11.568062593270017 -0.006956116029378345 1.0409221728050129
upperback 0.1864268699873294 0.26131921456393786 1.8285066099176643
thorax -6.121785127383616 0.1405812754853778 0.6939615564408533
lowerneck -16.420501899289462 -3.062052375718922 -3.350400784782323
upperneck 22.09512574792602 -3.758438186547064 1.7336381885991077
head 9.669894109358221 -1.8216933595807983 0.7606124653626084
lclavicle -2.0274129316507985e-15 -7.123636441596234e-16
lhumerus -33.198844002296 1.9770394073347717 80.6648312904073
lradius 28.769684979400132
lwrist 8.266092392335915
lhand -29.85621785756549 19.419638425404937
lfingers 7.12502
lthumb -3.133199484669766 49.68453151633846
rclavicle -2.0276127424286615e-15 -7.124712808163752e-16
rhumerus -30.159093660808537 -21.431560485796112 -75.988999194844
rradius 20.805219777578458
rwrist 5.658606449616253
rhand -17.230076246161477 22.605426378563894
rfingers 7.12502
rthumb 8.33900075026303 -6.875467616843198
